# xmcd CD database file generated by OrangeCD 5.1
#
# Track frame offsets:
#	150
#	24602
#	48107
#	86887
#	102919
#	123269
#	161509
#	184639
#	216241
#	241298
#
# Disc length: 3511 seconds
#
# Revision: 4
# Processed by: cddbd v1.5PL3 Copyright (c) Steve Scherf et al.
# Submitted via: OrangeCD 5.1
#
DISCID=7e0db50a
DTITLE=B.B. King - Why I Sing The Blues
DYEAR=1992
DGENRE=Blues
TTITLE0=The Thrill Is Gone
TTITLE1=Ghetto Woman
TTITLE2=Why I Sing The Blues
TTITLE3=Ain't Nobody Home
TTITLE4=Hummingbird
TTITLE5=To Know You Is To Love You
TTITLE6=How Blue Can You Get
TTITLE7=Sweet Sixteen
TTITLE8=So Excited
TTITLE9=Chains and Things
EXTD=ID3G:   0
EXTT0=
EXTT1=
EXTT2=
EXTT3=
EXTT4=
EXTT5=
EXTT6=
EXTT7=
EXTT8=
EXTT9=
PLAYORDER=
